<?xml version="1.0" encoding="UTF-8" standalone="no"?>
<!-- Created with Inkscape (http://www.inkscape.org/) -->

<svg
    version="1.1"
    width="256"
    height="256"
    viewBox="0 0 256 256"
    xmlns:xlink="http://www.w3.org/1999/xlink"
    xmlns="http://www.w3.org/2000/svg"
    xmlns:svg="http://www.w3.org/2000/svg">
    <circle cx="128" cy="128" r="128" />
    <path
        fill="#ffffff"
        d="m 111.5156,163.28 c 0.25872,-0.66 2.62234,-6.888 5.25248,-13.84 l 4.78207,-12.64 2.4221,-0.0934 2.42211,-0.0934 -0.34257,0.89341 c -0.18841,0.49137 -2.14447,5.64541 -4.34681,11.45341 -2.20234,5.808 -4.43339,11.676 -4.95788,13.04 l -0.95362,2.48 h -2.37415 -2.37415 z M 39.639296,159.14121 C 38.411661,158.37932 37.76,157.06572 37.76,155.35298 c 0,-1.32537 0.150659,-1.65893 1.242352,-2.75063 1.126733,-1.12673 1.398266,-1.24235 2.917648,-1.24235 1.519382,0 1.790915,0.11562 2.917648,1.24235 1.091693,1.0917 1.242352,1.42526 1.242352,2.75063 0,2.68302 -1.60967,4.33442 -4.209373,4.3185 -0.764845,-0.005 -1.768944,-0.2433 -2.231331,-0.53027 z m 19.2,0 C 57.611661,158.37932 56.96,157.06572 56.96,155.35298 c 0,-1.32537 0.150659,-1.65893 1.242352,-2.75063 1.126733,-1.12673 1.398266,-1.24235 2.917648,-1.24235 1.519382,0 1.790915,0.11562 2.917648,1.24235 1.091693,1.0917 1.242352,1.42526 1.242352,2.75063 0,2.68302 -1.60967,4.33442 -4.209373,4.3185 -0.764845,-0.005 -1.768944,-0.2433 -2.231331,-0.53027 z m 38.4,0 C 96.011661,158.37932 95.36,157.06572 95.36,155.35298 c 0,-1.32537 0.150659,-1.65893 1.242352,-2.75063 1.126733,-1.12673 1.398266,-1.24235 2.917648,-1.24235 1.51938,0 1.79092,0.11562 2.91765,1.24235 1.09169,1.0917 1.24235,1.42526 1.24235,2.75063 0,2.68302 -1.60967,4.33442 -4.209373,4.3185 -0.764845,-0.005 -1.768944,-0.2433 -2.231331,-0.53027 z M 72.64,148.8 v -1.92 H 80.32 88 v 1.92 1.92 h -7.68 -7.68 z m 57.6,0 v -1.92 h 7.68 7.68 v 1.92 1.92 h -7.68 -7.68 z m 19.2,0 v -1.92 h 7.68 7.68 v 1.92 1.92 h -7.68 -7.68 z m 19.2,0 v -1.92 h 7.68 7.68 v 1.92 1.92 h -7.68 -7.68 z m 19.2,0 v -1.92 h 7.68 7.68 v 1.92 1.92 h -7.68 -7.68 z m 19.2,0 v -1.92 h 7.68 7.68 v 1.92 1.92 h -7.68 -7.68 z M 92.315597,122.64 c 0.258726,-0.66 2.622345,-6.888 5.252483,-13.84 l 4.78207,-12.64 2.4221,-0.09341 2.42211,-0.09341 -0.34257,0.893408 c -0.18841,0.491376 -2.14447,5.645412 -4.34681,11.453412 -2.20234,5.808 -4.433386,11.676 -4.957879,13.04 l -0.953619,2.48 h -2.374151 -2.37415 z M 58.839296,118.50121 C 57.611661,117.73932 56.96,116.42572 56.96,114.71298 c 0,-1.32537 0.150659,-1.65893 1.242352,-2.75063 1.126733,-1.12673 1.398266,-1.24235 2.917648,-1.24235 1.519382,0 1.790915,0.11562 2.917648,1.24235 1.091693,1.0917 1.242352,1.42526 1.242352,2.75063 0,2.68302 -1.60967,4.33442 -4.209373,4.3185 -0.764845,-0.005 -1.768944,-0.2433 -2.231331,-0.53027 z m 57.600004,0 c -1.22764,-0.76189 -1.8793,-2.07549 -1.8793,-3.78823 0,-1.32537 0.15066,-1.65893 1.24235,-2.75063 1.12673,-1.12673 1.39827,-1.24235 2.91765,-1.24235 1.51938,0 1.79092,0.11562 2.91765,1.24235 1.09169,1.0917 1.24235,1.42526 1.24235,2.75063 0,2.68302 -1.60967,4.33442 -4.20937,4.3185 -0.76485,-0.005 -1.76895,-0.2433 -2.23133,-0.53027 z M 34.24,108.16 v -1.92 h 7.68 7.68 v 1.92 1.92 h -7.68 -7.68 z m 38.4,0 v -1.92 H 80.32 88 v 1.92 1.92 h -7.68 -7.68 z m 57.6,0 v -1.92 h 7.68 7.68 v 1.92 1.92 h -7.68 -7.68 z m 19.2,0 v -1.92 h 7.68 7.68 v 1.92 1.92 h -7.68 -7.68 z m 19.2,0 v -1.92 h 7.68 7.68 v 1.92 1.92 h -7.68 -7.68 z m 19.2,0 v -1.92 h 7.68 7.68 v 1.92 1.92 h -7.68 -7.68 z"
    />
</svg>
