<?xml version="1.0" encoding="UTF-8"?>
<svg width="752pt" height="752pt" version="1.1" viewBox="0 0 752 752" xmlns="http://www.w3.org/2000/svg">
 <g>
  <path d="m752 376c0 134.33-71.664 258.46-188 325.62-116.34 67.168-259.66 67.168-376 0-116.34-67.164-188-191.29-188-325.62s71.664-258.46 188-325.62c116.34-67.168 259.66-67.168 376 0 116.34 67.164 188 191.29 188 325.62"/>
  <path d="m339.59 365.49c2.8047 2.7812 4.3789 6.5625 4.3789 10.508 0 3.9492-1.5742 7.7305-4.3789 10.508l-86.281 86.281c-3.7266 3.7539-9.1719 5.2344-14.289 3.8828-5.1133-1.3516-9.1172-5.3281-10.508-10.434-1.3867-5.1055 0.054687-10.562 3.7852-14.316l75.918-75.922-75.918-75.918c-2.7578-2.7734-4.3047-6.5234-4.3047-10.434 0-3.9102 1.5469-7.6641 4.3047-10.434 2.7773-2.8047 6.5586-4.3789 10.508-4.3789 3.9453 0 7.7266 1.5742 10.504 4.3789zm169.6 82.137h-128.31c-5.2891 0-10.176 2.8242-12.816 7.4023-2.6445 4.5781-2.6445 10.219 0 14.797 2.6406 4.582 7.5273 7.4023 12.816 7.4023h128.31c5.2891 0 10.172-2.8203 12.816-7.4023 2.6445-4.5781 2.6445-10.219 0-14.797s-7.5273-7.4023-12.816-7.4023z" fill="#fff"/>
 </g>
</svg>
